<svg xmlns="http://www.w3.org/2000/svg" viewBox="0 0 60 60">
    <defs>
        <style>.cls-1{fill:none;}.cls-2{fill:#3d3d63;}</style>
    </defs>
    <title>Gaming</title>
    <g id="图层_2" data-name="图层 2">
        <g id="Icons">
            <g id="Gaming">
                <rect class="cls-1" width="60" height="60"/>
                <path class="cls-2"
                      d="M14.43,28a1,1,0,0,0,.81-1.16L15,25.61a1,1,0,1,0-2,.35l.22,1.24A1,1,0,0,0,14.43,28Z"/>
                <path class="cls-2" d="M11.13,31.16l1.25-.22A1,1,0,1,0,12,29l-1.24.22a1,1,0,0,0,.34,2Z"/>
                <path class="cls-2"
                      d="M14.15,32.18l.22,1.24a1,1,0,0,0,1.15.81,1,1,0,0,0,.82-1.15l-.22-1.25A1,1,0,0,0,15,31,1,1,0,0,0,14.15,32.18Z"/>
                <path class="cls-2" d="M17.36,30.06l1.24-.22a1,1,0,1,0-.35-2L17,28.09a1,1,0,1,0,.35,2Z"/>
                <path class="cls-2"
                      d="M35.08,24.91l-1.24.22A1,1,0,0,0,33,26.28a1,1,0,0,0,1.16.82l1.25-.22a1,1,0,0,0,.81-1.16A1,1,0,0,0,35.08,24.91Z"/>
                <path class="cls-2"
                      d="M38,27a1,1,0,0,0-.81,1.15l.22,1.25a1,1,0,0,0,1.15.81A1,1,0,0,0,39.39,29l-.22-1.24A1,1,0,0,0,38,27Z"/>
                <path class="cls-2"
                      d="M48.4,19.2a1,1,0,0,0-1.34.45,3,3,0,0,1-5.67-1.21,1,1,0,0,0-1-1,1,1,0,0,0-1,1,5,5,0,0,0,9.46,2A1,1,0,0,0,48.4,19.2Z"/>
                <path class="cls-2"
                      d="M41,15.55a1.32,1.32,0,0,0,1.58-1,1.34,1.34,0,0,0-1-1.59A1.35,1.35,0,0,0,40,14,1.34,1.34,0,0,0,41,15.55Z"/>
                <path class="cls-2" d="M49.13,14.55a1.33,1.33,0,1,0,1,1.58A1.34,1.34,0,0,0,49.13,14.55Z"/>
                <path class="cls-2"
                      d="M54.7,19.48a10.33,10.33,0,0,0-19.92-5.39,7.67,7.67,0,0,0-2.61,1.4,3,3,0,0,0-1.07,2.1l-.19,2.69-.18.26-2.87.51c1.5-2.12,3.2-5.45,1.92-8.57C27.89,7.91,21,8,18.94,8.16a16,16,0,0,0-4.79,1c-1.8.71-3.08.81-4.15.31A1.83,1.83,0,0,1,9,7.92a1,1,0,1,0-2,.16,3.82,3.82,0,0,0,2.17,3.25,7.26,7.26,0,0,0,5.73-.27,13.84,13.84,0,0,1,4.19-.9c3.57-.25,7.75.43,8.85,3.08,1.35,3.29-2.18,7.37-3.09,8.34l-5.24.92-.26-.19-1.1-2.46a2.94,2.94,0,0,0-1.72-1.6,7.79,7.79,0,0,0-7.4,1.31,3,3,0,0,0-1.07,2.09l-.19,2.69a8.55,8.55,0,0,0-1.75,5.18c0,.08,0,.16,0,.25l0,.71-1,15.45a6.64,6.64,0,0,0,5.48,7,6.65,6.65,0,0,0,7.53-4.68l2.23-7.6a2.3,2.3,0,0,0,.26,0A4.47,4.47,0,0,0,25,36.4l5.31-.93a4.5,4.5,0,0,0,4.13,2.73,4.35,4.35,0,0,0,1.77-.37l4.69,6.37a6.65,6.65,0,0,0,11.44-6.61L47.8,27.14A10.34,10.34,0,0,0,54.7,19.48ZM33.1,17.73a1,1,0,0,1,.34-.69,4.93,4.93,0,0,1,.86-.57,11.3,11.3,0,0,0,0,1.16,8.28,8.28,0,0,0-1.21.66Zm-3.5,5a8.48,8.48,0,0,0,1.47,8.06A4.43,4.43,0,0,0,30,33.5l-5.31.93A4.49,4.49,0,0,0,22.8,32.3a8.49,8.49,0,0,0-1.39-8.09Zm-19.55-1a1,1,0,0,1,.34-.69,5.74,5.74,0,0,1,5.47-1,1,1,0,0,1,.56.53l.22.5A8.35,8.35,0,0,0,10,22.34Zm4.64,1.14a6.59,6.59,0,0,1,6.58,6.59,6.5,6.5,0,0,1-.39,2.21,2.85,2.85,0,0,0-.29,0,4.47,4.47,0,0,0-4.45,4.23,6.85,6.85,0,0,1-1.45.17,6.59,6.59,0,0,1,0-13.17Zm1.49,24.73a4.64,4.64,0,0,1-9.09-1.6l.73-11.43a8.55,8.55,0,0,0,6.87,3.47,8.75,8.75,0,0,0,1.78-.2,4.48,4.48,0,0,0,1.94,2.16Zm4.41-9a2.48,2.48,0,1,1,2.48-2.48A2.48,2.48,0,0,1,20.59,38.65ZM34.48,36.2A2.48,2.48,0,0,1,32,33.73a2.4,2.4,0,0,1,.51-1.49A8.55,8.55,0,0,0,36.92,34,2.46,2.46,0,0,1,34.48,36.2ZM31.16,25.45a6.59,6.59,0,0,1,3.38-5.74,10.34,10.34,0,0,0,7.9,7.73,11,11,0,0,0,1.5.2,6.58,6.58,0,0,1-12.78-2.19ZM50.55,38.39a4.65,4.65,0,0,1-8,4.62l-4.7-6.38A4.43,4.43,0,0,0,38.93,34a8.57,8.57,0,0,0,7-6Zm-7.69-12.9a8.34,8.34,0,1,1,9.88-6.42A8.34,8.34,0,0,1,42.86,25.49Z"/>
            </g>
        </g>
    </g>
</svg>