<svg xmlns="http://www.w3.org/2000/svg" viewBox="0 0 60 60">
    <defs>
        <style>.cls-1{fill:none;}.cls-2{fill:#3d3d63;}</style>
    </defs>
    <title>Histogram</title>
    <g id="图层_2" data-name="图层 2">
        <g id="Icons">
            <g id="Histogram">
                <rect class="cls-1" width="60" height="60"/>
                <path class="cls-2"
                      d="M45.33,32.43H43V20.1a1,1,0,0,0-1-1H36.67a1,1,0,0,0-1,1v1.67H31.33a1,1,0,0,0-1,1v1.66H26a1,1,0,0,0-1,1V27.1H20.67a1,1,0,0,0-1,1v4.33h-5a1,1,0,0,0,0,2H45.33a1,1,0,0,0,0-2Zm-13-8.66h3.34v8.66H32.33ZM27,26.43h3.33v6H27ZM21.67,29.1H25v3.33H21.67Zm16,3.33V21.1H41V32.43Z"/>
                <path class="cls-2" d="M14.67,21.77h6a1,1,0,0,0,0-2h-6a1,1,0,1,0,0,2Z"/>
                <path class="cls-2" d="M14.67,25.1h2.66a1,1,0,0,0,0-2H14.67a1,1,0,0,0,0,2Z"/>
                <path class="cls-2"
                      d="M47.58,17.17a1,1,0,0,0,.71.29,1,1,0,0,0,.7-.29l2.06-2.05a1,1,0,1,0-1.42-1.42l-1.34,1.35L48,14.73a1,1,0,0,0-1.42,0,1,1,0,0,0,0,1.41Z"/>
                <path class="cls-2"
                      d="M54.08,49.9H52.65l-4.31-7.47h5a1,1,0,0,0,1-1v-4a1,1,0,0,0-1-1H51.67V21a6.33,6.33,0,1,0-8.58-8.58H35.82l-.17-.86a1,1,0,0,0-1-.8h-1a3.64,3.64,0,0,0-7.26,0h-1a1,1,0,0,0-1,.8l-.17.86H9.33a1,1,0,0,0-1,1v23H6.67a1,1,0,0,0-1,1v4a1,1,0,0,0,1,1h4.95L7.31,49.9H5.92a1,1,0,0,0,0,2h9.34a1,1,0,1,0,0-2H15l4.31-7.47h7.07V49.9h-1a1,1,0,1,0,0,2h9.34a1,1,0,0,0,0-2h-1V42.43h7L45,49.9h-.27a1,1,0,0,0,0,2h9.34a1,1,0,0,0,0-2ZM48.67,11.1a4.34,4.34,0,1,1-4.34,4.33A4.33,4.33,0,0,1,48.67,11.1ZM30,9.43a1.67,1.67,0,0,1,1.63,1.34H28.37A1.67,1.67,0,0,1,30,9.43Zm3.85,3.34.26,1.33H25.89l.26-1.33ZM10.33,14.43H23.78l-.09.47a1,1,0,0,0,1,1.2H35.33a1,1,0,0,0,1-1.2l-.09-.47h6.2a6.64,6.64,0,0,0-.09,1,6.34,6.34,0,0,0,6.34,6.34,6.64,6.64,0,0,0,1-.09V36.43H10.33Zm-2.66,24H52.33v2H7.67Zm5,11.47h-3l4.31-7.47h3Zm19,0H28.33V42.43h3.34ZM43,42.43h3l4.31,7.47h-3Z"/>
            </g>
        </g>
    </g>
</svg>