<svg xmlns="http://www.w3.org/2000/svg" viewBox="0 0 60 60">
    <defs>
        <style>.cls-1{fill:none;}.cls-2{fill:#3d3d63;}</style>
    </defs>
    <title>In Maintenance</title>
    <g id="图层_2" data-name="图层 2">
        <g id="Icons">
            <g id="In_Maintenance" data-name="In Maintenance">
                <rect class="cls-1" width="60" height="60"/>
                <path class="cls-2" d="M44.68,15.56a1,1,0,0,0-1-1h-6a1,1,0,0,0,0,2h6A1,1,0,0,0,44.68,15.56Z"/>
                <path class="cls-2"
                      d="M55.33,50.78H53.74a2.64,2.64,0,0,0,.06-1.05L51.11,32.25a3.47,3.47,0,0,0-3.44-2.95h-6V23.9h2a1,1,0,0,0,.71-.29l4.3-4.3a1,1,0,0,0,.3-.71V12.52a1,1,0,0,0-.3-.71l-4.3-4.3a1,1,0,0,0-.71-.29H37.65a1,1,0,0,0-.71.29l-4.3,4.3a1,1,0,0,0-.29.71V18.6a1,1,0,0,0,.29.71l4.3,4.3a1.05,1.05,0,0,0,.71.29h2v5.4H23.83a3.46,3.46,0,0,0-3.44,2.95L20.11,34H16.84a1,1,0,0,0,0,2h3L17.7,49.73a2.47,2.47,0,0,0,.06,1.05H16l-2-11a1.87,1.87,0,0,0-1.83-1.54v-.45a3.28,3.28,0,1,0-2,0v.45a1.88,1.88,0,0,0-1.83,1.54l-2,11H4.67a1,1,0,0,0,0,2H55.33a1,1,0,0,0,0-2ZM9.89,34.64a1.29,1.29,0,0,1,2.57,0,1.29,1.29,0,1,1-2.57,0Zm.4,5.57h1.76l.46,2.52-2.42-1.4Zm-.58,3.21L13,45.31l.45,2.49L9.34,45.44ZM9,47.53l4.94,2.85.08.4H8.37Zm41.25-8,1.09,7.09H20.19l1.1-7.09ZM38.07,21.9l-3.72-3.71V12.93l3.72-3.71h5.25L47,12.93v5.26L43.32,21.9ZM23.83,31.3H47.67a1.47,1.47,0,0,1,1.46,1.25l.77,5H21.59l.77-5A1.48,1.48,0,0,1,23.83,31.3ZM51.67,50.56a.65.65,0,0,1-.5.22H20.32a.69.69,0,0,1-.5-.22.67.67,0,0,1-.15-.53l.22-1.38H51.61L51.82,50A.67.67,0,0,1,51.67,50.56Z"/>
                <path class="cls-2"
                      d="M31.57,43.15l-.73.74a1,1,0,0,0,1.41,1.41l1.44-1.44a1,1,0,0,0,0-1.41l-1.53-1.54a1,1,0,1,0-1.42,1.42Z"/>
                <path class="cls-2"
                      d="M24.51,43.15l-.73.74a1,1,0,1,0,1.41,1.41l1.44-1.44a1,1,0,0,0,0-1.41L25.1,40.91a1,1,0,0,0-1.42,1.42Z"/>
                <path class="cls-2"
                      d="M38.63,43.15l-.73.74a1,1,0,0,0,1.41,1.41l1.44-1.44a1,1,0,0,0,0-1.41l-1.53-1.54a1,1,0,0,0-1.42,1.42Z"/>
                <path class="cls-2"
                      d="M45.69,43.15l-.73.74a1,1,0,0,0,1.41,1.41l1.44-1.44a1,1,0,0,0,0-1.41l-1.53-1.54a1,1,0,0,0-1.42,1.42Z"/>
                <path class="cls-2"
                      d="M12.38,29.58a1,1,0,0,0,1-1V27.5H29a1,1,0,1,0,0-2H27.52l-3.05-3.42a3,3,0,0,0-2.24-1h0a3,3,0,0,0-2.24,1l-.6.67a2.43,2.43,0,0,0-3.22.24L13.94,25.5H12.38a1,1,0,0,0-1,1v2.08A1,1,0,0,0,12.38,29.58Zm9.11-6.17a1,1,0,0,1,.74-.33h0a1,1,0,0,1,.75.33l1.86,2.09H21.89l-1.13-1.27Zm-3.82.91c.17-.19.32-.19.5,0l1,1.18h-2.6Z"/>
                <path class="cls-2" d="M32.38,27.5h2a1,1,0,0,0,0-2h-2a1,1,0,1,0,0,2Z"/>
                <path class="cls-2" d="M29.85,35.43h11.8a1,1,0,0,0,0-2H29.85a1,1,0,0,0,0,2Z"/>
            </g>
        </g>
    </g>
</svg>