<svg xmlns="http://www.w3.org/2000/svg" viewBox="0 0 60 60">
    <defs>
        <style>.cls-1{fill:none;}.cls-2{fill:#3d3d63;}</style>
    </defs>
    <title>Inspiration</title>
    <g id="图层_2" data-name="图层 2">
        <g id="Icons">
            <g id="Inspiration">
                <rect class="cls-1" width="60" height="60"/>
                <path class="cls-2"
                      d="M46.21,27.83A16.3,16.3,0,0,0,41.1,16a16.2,16.2,0,1,0-22,23.83,13.23,13.23,0,0,1,3.39,5h-.29a2.92,2.92,0,0,0-2.92,2.92V48A2.92,2.92,0,0,0,22.24,51h1.34a6.47,6.47,0,0,0,12.84,0h1.34A2.92,2.92,0,0,0,40.68,48v-.3a2.92,2.92,0,0,0-2.92-2.92h-.25a14,14,0,0,1,3.5-5.1A16.27,16.27,0,0,0,46.21,27.83ZM30,54.64A4.47,4.47,0,0,1,25.61,51h8.78A4.47,4.47,0,0,1,30,54.64Zm7.76-7.82a.92.92,0,0,1,.92.92V48a.92.92,0,0,1-.92.92H22.24a.92.92,0,0,1-.92-.92v-.3a.92.92,0,0,1,.92-.92Zm-11-13.44H25.17a1.27,1.27,0,0,1-1.26-1.26v-.37a1.27,1.27,0,0,1,1.26-1.26h.37a1.27,1.27,0,0,1,1.26,1.26Zm2,11.44V35.38h2.4v9.44Zm6.57,0H33.2V35.38h1.63a3.26,3.26,0,0,0,3.26-3.26v-.37a3.26,3.26,0,0,0-3.26-3.26h-.37a3.27,3.27,0,0,0-3.26,3.26v1.63H28.8V31.75a3.27,3.27,0,0,0-3.26-3.26h-.37a3.26,3.26,0,0,0-3.26,3.26v.37a3.26,3.26,0,0,0,3.26,3.26H26.8v9.44H24.66a15.27,15.27,0,0,0-4.18-6.45A14.15,14.15,0,0,1,15.82,27,14.37,14.37,0,0,1,29.09,13.65,14.22,14.22,0,0,1,44.21,27.83a14.27,14.27,0,0,1-4.56,10.42A16.17,16.17,0,0,0,35.37,44.82ZM33.2,33.38V31.75a1.27,1.27,0,0,1,1.26-1.26h.37a1.27,1.27,0,0,1,1.26,1.26v.37a1.27,1.27,0,0,1-1.26,1.26Z"/>
                <path class="cls-2"
                      d="M21.51,19.6a12.1,12.1,0,0,0-2.78,4.12,1,1,0,0,0,.54,1.3,1.08,1.08,0,0,0,.38.08,1,1,0,0,0,.93-.63A10.11,10.11,0,0,1,22.9,21a1,1,0,0,0-1.39-1.44Z"/>
                <path class="cls-2"
                      d="M26.06,16.81a11.26,11.26,0,0,0-1.39.57,1,1,0,0,0,.44,1.9,1,1,0,0,0,.44-.1,9.12,9.12,0,0,1,1.16-.48,1,1,0,0,0,.62-1.27A1,1,0,0,0,26.06,16.81Z"/>
                <path class="cls-2" d="M30,8.05a1,1,0,0,0,1-1V4.36a1,1,0,1,0-2,0V7.05A1,1,0,0,0,30,8.05Z"/>
                <path class="cls-2" d="M14.6,13.85A1,1,0,0,0,16,12.43l-1.91-1.9a1,1,0,0,0-1.41,1.41Z"/>
                <path class="cls-2" d="M9.22,26.83H6.53a1,1,0,0,0,0,2H9.22a1,1,0,0,0,0-2Z"/>
                <path class="cls-2" d="M14.6,41.81l-1.9,1.91a1,1,0,0,0,1.41,1.41L16,43.23a1,1,0,1,0-1.42-1.42Z"/>
                <path class="cls-2" d="M45.4,41.81A1,1,0,1,0,44,43.23l1.91,1.9a1,1,0,0,0,1.41-1.41Z"/>
                <path class="cls-2" d="M53.47,26.83H50.78a1,1,0,0,0,0,2h2.69a1,1,0,0,0,0-2Z"/>
                <path class="cls-2" d="M45.89,10.53,44,12.43a1,1,0,1,0,1.42,1.42l1.9-1.91a1,1,0,0,0-1.41-1.41Z"/>
            </g>
        </g>
    </g>
</svg>