<svg xmlns="http://www.w3.org/2000/svg" viewBox="0 0 60 60">
    <defs>
        <style>.cls-1{fill:none;}.cls-2{fill:#3d3d63;}</style>
    </defs>
    <title>Lady</title>
    <g id="图层_2" data-name="图层 2">
        <g id="Icons">
            <g id="Lady">
                <rect class="cls-1" width="60" height="60"/>
                <path class="cls-2"
                      d="M51.41,53.33H48.17v-.7a9,9,0,0,0-4.69-7.88,1,1,0,0,0-.58-.9A9,9,0,0,0,39.05,43H38a1,1,0,0,0-.71.3A4.8,4.8,0,0,1,35,41.36a12.48,12.48,0,0,0,2.07-1.27h5.59a3.25,3.25,0,0,0,3.24-3.24V21.27a16.26,16.26,0,0,0-.4-3.56c.12-.09.24-.18.35-.28a3.17,3.17,0,0,0-.5-4.89l-1.49-1a1,1,0,0,0-.24-1L41,7.84a1,1,0,0,0-1-.24L39,6.1a3.16,3.16,0,0,0-4.88-.51,2.23,2.23,0,0,0-.19.24A15.89,15.89,0,0,0,14.07,21.27V36.85a3.25,3.25,0,0,0,3.24,3.24H22.9a11.69,11.69,0,0,0,2.26,1.36,4.69,4.69,0,0,1-2.43,1.91A1,1,0,0,0,22,43H21a9,9,0,0,0-3.85.86,1,1,0,0,0-.58.91v.13a8.52,8.52,0,0,0-4.69,7.58v.86H8.59a1,1,0,0,0,0,2H51.41a1,1,0,0,0,0-2Zm-34.89,0h-2.8v-.86a6.6,6.6,0,0,1,2.8-5.38ZM44.28,14.22a1.11,1.11,0,0,1,.52.85,1.2,1.2,0,0,1-1.27,1.28,1.19,1.19,0,0,1-.86-.52l-1.14-1.74,1-1Zm-4-4.25,1.29,1.29L39.7,13.09,38.41,11.8Zm-3.79-3.3a1.21,1.21,0,0,1,.86.52l1.14,1.74-1,1L35.7,8.8A1.11,1.11,0,0,1,35.18,8,1.19,1.19,0,0,1,36.45,6.67ZM17.31,38.09a1.24,1.24,0,0,1-1.24-1.24V21.27A14,14,0,0,1,30,7.33a14.2,14.2,0,0,1,3.19.38,3.23,3.23,0,0,0,0,.44,3.13,3.13,0,0,0,1.41,2.32l1.47,1a1,1,0,0,0,.22,1.06L39,15.21a1,1,0,0,0,1,.23l1,1.48a3.12,3.12,0,0,0,2.32,1.41,1.5,1.5,0,0,0,.3,0,13.71,13.71,0,0,1,.31,2.94V36.85a1.24,1.24,0,0,1-1.24,1.24H39.14a11.64,11.64,0,0,0,2.53-7.24V18.34a1,1,0,0,0-.51-.86,1,1,0,0,0-1,0A6.68,6.68,0,0,1,31,15a1,1,0,0,0-1.87.52,6.69,6.69,0,0,1-9.39,6.12,1,1,0,0,0-1.41.91v8.27a11.64,11.64,0,0,0,2.53,7.24Zm3-7.24V24a8.83,8.83,0,0,0,2.11.26A8.68,8.68,0,0,0,30.78,18a8.72,8.72,0,0,0,6,2.42,8.49,8.49,0,0,0,2.87-.49v11a9.67,9.67,0,0,1-19.34,0Zm6.75,11.29a11.68,11.68,0,0,0,2.92.38,11.24,11.24,0,0,0,3.14-.45,6.78,6.78,0,0,0,3.76,3.2c-.65,3.11-3.67,4.52-6.67,4.52h-.46c-3,0-6-1.39-6.65-4.45A6.74,6.74,0,0,0,27.08,42.14Zm14.4,11.19h-23v-7.9A7,7,0,0,1,21,45H21c.49,4,3.94,6.8,8.74,6.8h.46C35,51.79,38.48,49,39,45h.08a7,7,0,0,1,2.43.44Zm4.69,0H43.48v-6.2a7,7,0,0,1,2.69,5.5Z"/>
                <path class="cls-2"
                      d="M34.44,34.37a1,1,0,0,0-1.84-.81,2.83,2.83,0,0,1-5.2,0,1,1,0,0,0-1.84.81,4.85,4.85,0,0,0,8.88,0Z"/>
                <path class="cls-2" d="M26.56,26.65V25.49a1,1,0,0,0-2,0v1.16a1,1,0,0,0,2,0Z"/>
                <path class="cls-2" d="M34.44,27.65a1,1,0,0,0,1-1V25.49a1,1,0,1,0-2,0v1.16A1,1,0,0,0,34.44,27.65Z"/>
            </g>
        </g>
    </g>
</svg>