<svg xmlns="http://www.w3.org/2000/svg" viewBox="0 0 60 60">
    <defs>
        <style>.cls-1{fill:none;}.cls-2{fill:#3d3d63;}</style>
    </defs>
    <title>Mailbox</title>
    <g id="图层_2" data-name="图层 2">
        <g id="Icons">
            <g id="Mailbox">
                <rect class="cls-1" width="60" height="60"/>
                <path class="cls-2"
                      d="M50.64,33.65V19.24a7.66,7.66,0,0,0-5.5-7.34V8.64a1,1,0,0,0-1-1H36.29a1,1,0,0,0-1,1v2.93H18.36a9,9,0,0,0-9,9V33.65A3,3,0,0,0,10,39.57h3.05a3.67,3.67,0,0,0,3.62,3.15h9.58V54a1,1,0,1,0,2,0V42.72h3.5V54a1,1,0,1,0,2,0V42.72h9.58A3.67,3.67,0,0,0,47,39.57h3a3,3,0,0,0,.64-5.92Zm-13.35-24h5.85v4.29H37.29Zm-1,11a1.85,1.85,0,1,1-1.85,1.85A1.85,1.85,0,0,1,36.29,20.64Zm-1-7.07v5.22a3.84,3.84,0,1,0,2,0V15.93h6.85a1,1,0,0,0,1-1V14a5.68,5.68,0,0,1,3.5,5.23v11H30.21V20.57a9,9,0,0,0-3.35-7ZM48.64,32.23v1.34H30.21V32.23Zm-29.3-4.92,4.71,2.34a1.06,1.06,0,0,0,.9,0L28.21,28v5.54H16.07V23.33A.33.33,0,0,1,16.4,23H28.21v2.79L24.5,27.64l-4.27-2.12a1,1,0,0,0-1.34.45A1,1,0,0,0,19.34,27.31ZM18.86,21l.24-1.55a.35.35,0,0,1,.39-.28l8.72,1.38V21Zm-7.5-.43a7,7,0,0,1,7-7h2.85a7,7,0,0,1,6.68,4.91L19.8,17.19a2.34,2.34,0,0,0-2.67,1.94L16.83,21H16.4a2.34,2.34,0,0,0-2.33,2.33V33.57H11.36Zm32,20.15H16.67a1.67,1.67,0,0,1-1.58-1.15H44.91A1.67,1.67,0,0,1,43.33,40.72ZM50,37.57H10a1,1,0,0,1,0-2H50a1,1,0,0,1,0,2Z"/>
            </g>
        </g>
    </g>
</svg>