<svg xmlns="http://www.w3.org/2000/svg" viewBox="0 0 60 60">
    <defs>
        <style>.cls-1{fill:none;}.cls-2{fill:#3d3d63;}</style>
    </defs>
    <title>Man</title>
    <g id="图层_2" data-name="图层 2">
        <g id="Icons">
            <g id="Man">
                <rect class="cls-1" width="60" height="60"/>
                <path class="cls-2"
                      d="M52.06,53.33H49.38v-.75a9.25,9.25,0,0,0-9.25-9.24h-.81l-.32,0,.35-.63a1,1,0,0,0,0-1l-1.44-2.5A11.69,11.69,0,0,0,42,30.71,4.9,4.9,0,0,0,46.11,26V24.73a2.87,2.87,0,0,0-2.94-2.79H42V20.85h1.52a3.15,3.15,0,0,0,0-6.29H41V9.36a4.69,4.69,0,0,0-6.21-4.44L31.54,6a4.78,4.78,0,0,1-3.08,0L25.22,4.92A4.69,4.69,0,0,0,19,9.36v5.2H16.49a3.15,3.15,0,0,0,0,6.29H18v1.09H16.83a2.87,2.87,0,0,0-2.94,2.79V26A4.9,4.9,0,0,0,18,30.71a11.69,11.69,0,0,0,4.08,8.49l-1.44,2.5a1,1,0,0,0,0,1l.36.65H19.87a9.25,9.25,0,0,0-9.25,9.24v.75H7.94a1,1,0,1,0,0,2H52.06a1,1,0,0,0,0-2ZM18,28.64A2.85,2.85,0,0,1,15.89,26V24.73a.87.87,0,0,1,.94-.79H18ZM37.32,42.21l-3.09,5.66-2.79-2.78,4.92-4.53Zm5.85-18.27a.87.87,0,0,1,.94.79V26A2.85,2.85,0,0,1,42,28.64v-4.7ZM21,9.36a2.65,2.65,0,0,1,1.13-2.19,2.69,2.69,0,0,1,2.44-.36l3.23,1.11a6.84,6.84,0,0,0,4.38,0l3.23-1.11a2.69,2.69,0,0,1,2.44.36A2.65,2.65,0,0,1,39,9.36v1.58H21Zm0,3.58H39v1.62H21Zm-4.52,5.91a1.15,1.15,0,0,1,0-2.29h27a1.15,1.15,0,0,1,0,2.29ZM20,30.36V20.85H40v9.51a10,10,0,0,1-20,0ZM30,42.14A12.75,12.75,0,0,0,31.87,42L30,43.7,28.13,42A12.75,12.75,0,0,0,30,42.14Zm-1.44,3-2.79,2.78-3.09-5.66,1-1.65Zm-1.89,8.24H12.62v-.75a7.25,7.25,0,0,1,7.25-7.24h1.06a7,7,0,0,0,1.12-.1L24.66,50a1,1,0,0,0,.73.52h.15a1,1,0,0,0,.7-.3l.22-.21a1,1,0,0,0,.95.73h0Zm2.09,0,.77-2.58h.94l.77,2.58Zm3-4.58h-3.5l-.08-.45L30,46.48l1.83,1.82Zm15.63,4.58H33.33l-.77-2.58h0a1,1,0,0,0,.95-.73l.22.21a1,1,0,0,0,.7.3h.15a1,1,0,0,0,.73-.52L38,45.19a6.71,6.71,0,0,0,1.34.15h.81a7.25,7.25,0,0,1,7.25,7.24Z"/>
                <path class="cls-2"
                      d="M26.08,32.5a1,1,0,0,0-.52,1.32,4.84,4.84,0,0,0,8.88,0A1,1,0,0,0,32.6,33a2.83,2.83,0,0,1-5.2,0A1,1,0,0,0,26.08,32.5Z"/>
                <path class="cls-2" d="M25.56,26.6a1,1,0,0,0,1-1V24.45a1,1,0,0,0-2,0V25.6A1,1,0,0,0,25.56,26.6Z"/>
                <path class="cls-2" d="M34.44,26.6a1,1,0,0,0,1-1V24.45a1,1,0,0,0-2,0V25.6A1,1,0,0,0,34.44,26.6Z"/>
            </g>
        </g>
    </g>
</svg>