<svg xmlns="http://www.w3.org/2000/svg" viewBox="0 0 60 60">
    <defs>
        <style>.cls-1{fill:none;}.cls-2{fill:#3d3d63;}</style>
    </defs>
    <title>Mark</title>
    <g id="图层_2" data-name="图层 2">
        <g id="Icons">
            <g id="Mark">
                <rect class="cls-1" width="60" height="60"/>
                <path class="cls-2" d="M28.21,18.55a1,1,0,0,0,0-2H22.94a1,1,0,0,0,0,2Z"/>
                <path class="cls-2" d="M33.88,22.22H17.27a1,1,0,1,0,0,2H33.88a1,1,0,0,0,0-2Z"/>
                <path class="cls-2" d="M33.88,27.26H17.27a1,1,0,0,0,0,2H33.88a1,1,0,0,0,0-2Z"/>
                <path class="cls-2"
                      d="M54.25,41.17l-9.43-9.43a1,1,0,0,0-1.41,0L42,33.16a3,3,0,0,0-.58,3.4l-4.5,4.5a3,3,0,0,0-3.4.58l-1.42,1.42a1,1,0,0,0,0,1.41l4,4-4,4a1,1,0,1,0,1.42,1.42l4-4,4,4a1,1,0,0,0,1.41,0l1.42-1.42a3,3,0,0,0,.58-3.4l4.5-4.5a3,3,0,0,0,3.4-.58l1.42-1.42A1,1,0,0,0,54.25,41.17Zm-11.32,9.9-.7.71-8-8,.71-.7a1,1,0,0,1,1.41,0l6.6,6.6A1,1,0,0,1,42.93,51.07Zm.71-3.54-5.18-5.18,4.24-4.24,5.18,5.18Zm7.78-5a1,1,0,0,1-1.41,0L43.41,36a1,1,0,0,1,0-1.41l.7-.71,8,8Z"/>
                <path class="cls-2"
                      d="M27.4,51.19H11.79a.33.33,0,0,1-.33-.33V13.46a.33.33,0,0,1,.33-.33H39.36a.33.33,0,0,1,.33.33V28.17a1,1,0,0,0,2,0V13.46a2.33,2.33,0,0,0-2.33-2.33H16l.24-2.73a.33.33,0,0,1,.36-.3l27.46,2.4a.33.33,0,0,1,.3.36l-1.4,16a1,1,0,1,0,2,.18l1.4-16a2.33,2.33,0,0,0-2.12-2.53L16.79,6.11a2.32,2.32,0,0,0-2.52,2.12L14,11.13H11.79a2.34,2.34,0,0,0-2.33,2.33v37.4a2.34,2.34,0,0,0,2.33,2.33H27.4a1,1,0,1,0,0-2Z"/>
            </g>
        </g>
    </g>
</svg>