<svg xmlns="http://www.w3.org/2000/svg" viewBox="0 0 60 60">
    <defs>
        <style>.cls-1{fill:none;}.cls-2{fill:#3d3d63;}</style>
    </defs>
    <title>Medal</title>
    <g id="图层_2" data-name="图层 2">
        <g id="Icons">
            <g id="Medal">
                <rect class="cls-1" width="60" height="60"/>
                <path class="cls-2"
                      d="M41.24,23.84a6.32,6.32,0,0,0,1.59-4.17V12h1a3,3,0,0,0,0-6H17.16a3,3,0,0,0,0,6h1v7.67a6.29,6.29,0,0,0,1.58,4.17,17,17,0,1,0,21.5,0ZM17.16,10a1,1,0,0,1,0-2H43.83a1,1,0,0,1,0,2Zm23.67,2v7.67a4.28,4.28,0,0,1-1.24,3,17.23,17.23,0,0,0-4.1-1.91V12Zm-7.34,0v8.28a17.34,17.34,0,0,0-3-.28,17.53,17.53,0,0,0-3,.28V12Zm-8,0v8.75a17,17,0,0,0-4.09,1.91,4.28,4.28,0,0,1-1.24-3V12Zm5,40a15,15,0,1,1,15-15A15,15,0,0,1,30.49,52Z"/>
                <path class="cls-2"
                      d="M30.49,24a13,13,0,1,0,13,13A13,13,0,0,0,30.49,24Zm0,24a11,11,0,1,1,11-11A11,11,0,0,1,30.49,48Z"/>
                <path class="cls-2"
                      d="M33.06,29h-4a1,1,0,0,0-.84.46l-3,4.67a1,1,0,0,0,.84,1.54h2V44a1,1,0,0,0,1,1h4a1,1,0,0,0,1-1V30A1,1,0,0,0,33.06,29Zm-1,14h-2V34.67a1,1,0,0,0-1-1H27.89L29.61,31h2.45Z"/>
                <path class="cls-2"
                      d="M55.94,23.05l-5.34-2.3L49.46,15a1,1,0,0,0-.72-.77h0a1,1,0,0,0-1,.31l-2.65,3a1,1,0,0,0,1.5,1.32l1.32-1.5.84,4.23a1,1,0,0,0,.58.73l4,1.71-3.77,2.1A1,1,0,0,0,49,27l-.38,4.11a1,1,0,0,0,.74,1.06.45.45,0,0,0,.16,0,1,1,0,0,0,1.09-.9L51,27.68,56,24.84a1,1,0,0,0,.51-.92A1,1,0,0,0,55.94,23.05Z"/>
                <path class="cls-2"
                      d="M11.11,42.71l-.83-3.1a1,1,0,0,0-.64-.68l-2.94-1,2.62-1.71a1,1,0,0,0,.45-.81l.08-3.12.67.54a1,1,0,0,0,1.25-1.56L9.54,29.42a1,1,0,0,0-1-.13h0a1,1,0,0,0-.58.88l-.12,4.62L3.91,37.31a1,1,0,0,0-.45,1,1,1,0,0,0,.66.82l4.36,1.55,1.2,4.46a1,1,0,0,0,.77.72.94.94,0,0,0,.6-.07,1,1,0,0,0,.39-.3l1-1.27a1,1,0,0,0-1.3-1.47Z"/>
            </g>
        </g>
    </g>
</svg>