<svg xmlns="http://www.w3.org/2000/svg" viewBox="0 0 60 60">
    <defs>
        <style>.cls-1{fill:#3d3d63;}.cls-2{fill:none;}</style>
    </defs>
    <title>Message</title>
    <g id="图层_2" data-name="图层 2">
        <g id="Icons">
            <g id="Message">
                <g id="消息">
                    <path class="cls-1"
                          d="M47.58,7.72H31.42A2.45,2.45,0,0,0,29,10.16v2.89a14.39,14.39,0,0,0-7.18-.44l-.28-.48a4.77,4.77,0,0,0-8.26,4.77l.29.5a14.57,14.57,0,0,0-1.61,16.8L18.71,46l-.44.25a3.26,3.26,0,0,0,3.26,5.65L28,48.11a7.78,7.78,0,0,0,13.15-7.59l6.48-3.75a3.26,3.26,0,0,0-3.26-5.64l-.44.25L38,21.13h9.56A2.45,2.45,0,0,0,50,18.69V10.16A2.45,2.45,0,0,0,47.58,7.72ZM16,12.12a2.77,2.77,0,0,1,3.78,1l0,0a15.55,15.55,0,0,0-2.54,1.14A14.91,14.91,0,0,0,15,15.92v0A2.76,2.76,0,0,1,16,12.12ZM36.62,47.84a5.75,5.75,0,0,1-6.82-.76l9.57-5.53A5.74,5.74,0,0,1,36.62,47.84ZM42.2,32.38l-10.43,6a1,1,0,0,0-.37,1.36,1,1,0,0,0,1.37.37l12.61-7.28A1.26,1.26,0,1,1,46.64,35L20.53,50.12a1.26,1.26,0,0,1-1.26-2.19l4.05-2.34a1,1,0,1,0-1-1.73L20.44,45,13.66,33.2A12.58,12.58,0,0,1,18.26,16,12.42,12.42,0,0,1,29,15.18V23A1.71,1.71,0,0,0,30,24.56a1.68,1.68,0,0,0,1.88-.37L35,21.13h.75ZM48,18.69a.45.45,0,0,1-.45.44h-13a1,1,0,0,0-.71.3L31,22.3V10.16a.45.45,0,0,1,.45-.44H47.58a.45.45,0,0,1,.45.44Z"/>
                    <path class="cls-1" d="M34.66,13.64h3a1,1,0,0,0,0-2h-3a1,1,0,0,0,0,2Z"/>
                    <path class="cls-1" d="M43.26,15.21h-8.6a1,1,0,0,0,0,2h8.6a1,1,0,0,0,0-2Z"/>
                    <path class="cls-1"
                          d="M26.47,41.47l-.87.5a1,1,0,1,0,1,1.73l.87-.5a1,1,0,0,0,.36-1.37A1,1,0,0,0,26.47,41.47Z"/>
                </g>
                <rect class="cls-2" width="60" height="60"/>
            </g>
        </g>
    </g>
</svg>