<svg xmlns="http://www.w3.org/2000/svg" viewBox="0 0 60 60">
    <defs>
        <style>.cls-1{fill:none;}.cls-2{fill:#3d3d63;}</style>
    </defs>
    <title>Proposal</title>
    <g id="图层_2" data-name="图层 2">
        <g id="Icons">
            <g id="Proposal">
                <rect class="cls-1" width="60" height="60"/>
                <path class="cls-2"
                      d="M23.61,51.33H13.79a1,1,0,0,1-1-1V27.61h7.67a2.33,2.33,0,0,0,2.33-2.33V14.61a2.33,2.33,0,0,0-2.33-2.33H12.79V9.67a1,1,0,0,1,1-1h18a.34.34,0,0,1,.34.33v6a2.33,2.33,0,0,0,2.33,2.33h6a.33.33,0,0,1,.33.34v13a1,1,0,0,0,2,0V17.67A2.32,2.32,0,0,0,42,16v0l-5.31-5.31,8.69.84a1,1,0,0,1,.89,1.1L45.05,25.31a1,1,0,0,0,.9,1.1,1,1,0,0,0,1.09-.9l1.24-12.76a3,3,0,0,0-2.69-3.28L34.48,8.39l-1-1h0a2.32,2.32,0,0,0-1.65-.68h-18a3,3,0,0,0-3,3v2.61h-1a2.34,2.34,0,0,0-2.33,2.33V25.28a2.33,2.33,0,0,0,2.33,2.33h1V50.33a3,3,0,0,0,3,3h9.82a1,1,0,0,0,0-2ZM34.13,10.86l4.46,4.47H34.46a.33.33,0,0,1-.33-.33ZM9.46,25.28V14.61a.33.33,0,0,1,.33-.33H20.46a.33.33,0,0,1,.33.33V25.28a.33.33,0,0,1-.33.33H9.79A.33.33,0,0,1,9.46,25.28Z"/>
                <path class="cls-2"
                      d="M17,31a1.53,1.53,0,0,0-1.54,1.53v4.27A1.54,1.54,0,0,0,17,38.28h4.26a1.53,1.53,0,0,0,1.53-1.53V32.48A1.52,1.52,0,0,0,21.26,31Zm3.79,5.33H17.46V33h3.33Z"/>
                <path class="cls-2" d="M35.46,36.64a1,1,0,0,0-1-1h-8a1,1,0,0,0,0,2h8A1,1,0,0,0,35.46,36.64Z"/>
                <path class="cls-2" d="M26.46,31.59a1,1,0,0,0,0,2h3.33a1,1,0,0,0,0-2Z"/>
                <path class="cls-2" d="M34.13,23.28a1,1,0,0,0-1-1H26.46a1,1,0,0,0,0,2h6.67A1,1,0,0,0,34.13,23.28Z"/>
                <path class="cls-2" d="M26.46,20.22h3.33a1,1,0,0,0,0-2H26.46a1,1,0,0,0,0,2Z"/>
                <path class="cls-2"
                      d="M17,17.4l-3,3-.86-.86a1,1,0,0,0-1.41,0,1,1,0,0,0,0,1.42l1.56,1.56a1,1,0,0,0,.71.3,1,1,0,0,0,.71-.3l3.68-3.67A1,1,0,0,0,17,17.4Z"/>
                <path class="cls-2"
                      d="M51.57,32.4l-.51-.51a3.31,3.31,0,0,0-4.68,0L32.31,46a.88.88,0,0,0-.24.39L30.18,52a1,1,0,0,0,1.26,1.26L37.1,51.4a1,1,0,0,0,.39-.25L51.57,37.08A3.31,3.31,0,0,0,51.57,32.4ZM32.71,50.75l.74-2.22L34.93,50ZM36.79,49l-2.36-2.35,9-9L45.79,40ZM47.21,38.61l-2.36-2.35,1-1,2.35,2.36Zm2.94-3-.48.49L47.31,33.8l.49-.49a1.31,1.31,0,0,1,1.85,0l.5.5A1.31,1.31,0,0,1,50.15,35.66Z"/>
            </g>
        </g>
    </g>
</svg>