<svg xmlns="http://www.w3.org/2000/svg" viewBox="0 0 60 60">
    <defs>
        <style>.cls-1{fill:none;}.cls-2{fill:#3d3d63;}</style>
    </defs>
    <title>Research</title>
    <g id="图层_2" data-name="图层 2">
        <g id="Icons">
            <g id="Research">
                <rect class="cls-1" width="60" height="60"/>
                <path class="cls-2"
                      d="M49.62,8h-10a3,3,0,0,0-3,3V24.16a3,3,0,0,0,3,3h10a3,3,0,0,0,3-3V11A3,3,0,0,0,49.62,8Zm1,16.14a1,1,0,0,1-1,1h-10a1,1,0,0,1-1-1V11a1,1,0,0,1,1-1h10a1,1,0,0,1,1,1Z"/>
                <path class="cls-2" d="M47.65,12.76H44.21a1,1,0,0,0,0,2h3.44a1,1,0,0,0,0-2Z"/>
                <path class="cls-2" d="M47.65,16.59H44.21a1,1,0,0,0,0,2h3.44a1,1,0,0,0,0-2Z"/>
                <path class="cls-2" d="M47.65,20.42H44.21a1,1,0,1,0,0,2h3.44a1,1,0,0,0,0-2Z"/>
                <path class="cls-2"
                      d="M40.89,13.05l-.13.15-.09.17-.06.19a1.36,1.36,0,0,0,0,.2,1,1,0,0,0,.3.7,1,1,0,0,0,.7.3,1,1,0,0,0,.71-.3,1,1,0,0,0,0-1.41A1,1,0,0,0,40.89,13.05Z"/>
                <path class="cls-2"
                      d="M42.3,16.88a1,1,0,0,0-.9-.27.6.6,0,0,0-.19.06.56.56,0,0,0-.17.09l-.15.12a1,1,0,0,0,0,1.42,1,1,0,0,0,1.63-1.09A1.19,1.19,0,0,0,42.3,16.88Z"/>
                <path class="cls-2"
                      d="M40.89,20.72a1,1,0,0,0-.3.7,1,1,0,0,0,.08.39.87.87,0,0,0,.22.32,1,1,0,0,0,1.41,0,1,1,0,0,0,.22-.32,1,1,0,0,0,.07-.39,1,1,0,0,0-.29-.7A1,1,0,0,0,40.89,20.72Z"/>
                <path class="cls-2"
                      d="M48.38,53.09H45.76v-.33a4.35,4.35,0,0,0-4.34-4.34H39.34l-2.11-7.87,5.09-1.36A1,1,0,0,0,43,38l-.86-3.22a1,1,0,0,0-1.23-.7L26.68,37.86A1,1,0,0,0,26,39.08l.87,3.22a1,1,0,0,0,1.22.71l2.43-.65.22.79a9.17,9.17,0,0,1-10.37-4.24A5,5,0,0,0,20,30a9.38,9.38,0,0,1,4.24-4.25l1.32,4.59a1,1,0,0,0,1.24.68l.67-.19.83,2.91a1,1,0,0,0,1.24.68l3.61-1a1,1,0,0,0,.69-1.24L33,29.2l.67-.19a1,1,0,0,0,.68-1.24L29.92,12.46a1,1,0,0,0-1.23-.69l-.1,0-.58-2A3.66,3.66,0,0,0,29.6,5.67a1.75,1.75,0,0,0-2.17-1.2L19,6.88a1.76,1.76,0,0,0-1.2,2.18,3.67,3.67,0,0,0,3.53,2.64l.58,2-.11,0A1,1,0,0,0,21.12,15l.4,1.41a19,19,0,0,0-5.61,32h-.58A4.35,4.35,0,0,0,11,52.76v.33H8.38a1,1,0,0,0,0,2h40a1,1,0,0,0,0-2ZM37.27,48.42H34.19l-1.76-6.58,2.87-.77Zm-8.76-7.6-.35-1.29,12.33-3.3.35,1.29ZM21,34.54a3,3,0,1,1-3-3A3,3,0,0,1,21,34.54Zm8.93-2.36-.56-1.94L31,29.75l.56,1.95Zm2.22-4.82-5,1.42-.46-1.61,4.95-1.42ZM28.28,14l2.82,9.86-5,1.42-2.82-9.86Zm-5-2.68,2.84-.81.53,1.87-2.83.81ZM21.78,9.65a1.68,1.68,0,0,1-2-.92l7.93-2.27a1.66,1.66,0,0,1-1.19,1.82ZM11.38,34.09A17,17,0,0,1,22.07,18.31l1.57,5.45a11.41,11.41,0,0,0-5.7,5.81,5,5,0,0,0,.06,10c.12,0,.23,0,.35,0a11.41,11.41,0,0,0,10,6,11.11,11.11,0,0,0,2.85-.38l.89,3.32H19.24A16.88,16.88,0,0,1,11.38,34.09Zm32.38,19H13v-.33a2.34,2.34,0,0,1,2.34-2.34H41.42a2.34,2.34,0,0,1,2.34,2.34Z"/>
                <path class="cls-2" d="M16.67,34.54A1.33,1.33,0,1,0,18,33.21,1.32,1.32,0,0,0,16.67,34.54Z"/>
            </g>
        </g>
    </g>
</svg>