<svg xmlns="http://www.w3.org/2000/svg" viewBox="0 0 60 60">
    <defs>
        <style>.cls-1{fill:none;}.cls-2{fill:#3d3d63;}</style>
    </defs>
    <title>Speech</title>
    <g id="图层_2" data-name="图层 2">
        <g id="Icons">
            <g id="Speech">
                <rect class="cls-1" width="60" height="60"/>
                <path class="cls-2"
                      d="M19.15,40V33.57a4,4,0,0,0-7.93,0V40a4,4,0,0,0,7.93,0Zm-5.93,0V33.57a2,2,0,0,1,3.93,0V40a2,2,0,0,1-3.93,0Z"/>
                <path class="cls-2"
                      d="M17,49.71h-.83V48a8,8,0,0,0,7-7.93,1,1,0,0,0-2,0,6,6,0,0,1-12,0,1,1,0,0,0-2,0,8,8,0,0,0,7,7.93v1.72h-.82a1,1,0,1,0,0,2H17a1,1,0,0,0,0-2Z"/>
                <path class="cls-2" d="M23,26.06h8.63a1,1,0,0,0,0-2H23a1,1,0,0,0,0,2Z"/>
                <path class="cls-2" d="M37,40.49H33.5a1,1,0,0,0,0,2H37a1,1,0,0,0,0-2Z"/>
                <path class="cls-2" d="M23,31.54H37a1,1,0,0,0,0-2H23a1,1,0,1,0,0,2Z"/>
                <path class="cls-2" d="M23,37H37a1,1,0,0,0,0-2H23a1,1,0,1,0,0,2Z"/>
                <path class="cls-2"
                      d="M52.18,41h-6.4V13a4.71,4.71,0,0,0-4.7-4.7H15.18a4.71,4.71,0,0,0-4.7,4.7v5.18a1,1,0,0,0,1,1h2.7v8a1,1,0,0,0,2,0v-8h21.2a1,1,0,0,0,1-1V13a2.7,2.7,0,1,1,5.4,0V47a4.68,4.68,0,0,0,.85,2.7H20.51a1,1,0,1,0,0,2h28a4.71,4.71,0,0,0,4.7-4.7V42A1,1,0,0,0,52.18,41ZM36.38,13v4.18H12.48V13a2.71,2.71,0,0,1,2.7-2.7h22A4.75,4.75,0,0,0,36.38,13Zm12.1,36.74a2.7,2.7,0,0,1-2.7-2.7V43h5.4v4A2.7,2.7,0,0,1,48.48,49.71Z"/>
            </g>
        </g>
    </g>
</svg>