<svg xmlns="http://www.w3.org/2000/svg" viewBox="0 0 60 60">
    <defs>
        <style>.cls-1{fill:none;}.cls-2{fill:#3d3d63;}</style>
    </defs>
    <title>Stopwatch</title>
    <g id="图层_2" data-name="图层 2">
        <g id="Icons">
            <g id="Stopwatch">
                <rect class="cls-1" width="60" height="60"/>
                <rect class="cls-1" width="60" height="60"/>
                <rect class="cls-1" x="24.71" y="5" width="10.56" height="4.32" rx="0.96" ry="0.96"/>
                <path class="cls-2" d="M30,23.64a1,1,0,0,0,1-1V20.89a1,1,0,0,0-2,0v1.75A1,1,0,0,0,30,23.64Z"/>
                <path class="cls-2" d="M22.66,42.76a1,1,0,1,0-1.42-1.42L20,42.58A1,1,0,0,0,21.42,44Z"/>
                <path class="cls-2" d="M19.62,34a1,1,0,0,0-1-1H16.87a1,1,0,1,0,0,2h1.75A1,1,0,0,0,19.62,34Z"/>
                <path class="cls-2" d="M30,44.38a1,1,0,0,0-1,1v1.75a1,1,0,0,0,2,0V45.38A1,1,0,0,0,30,44.38Z"/>
                <path class="cls-2"
                      d="M38.74,41.34a1,1,0,0,0-1.41,0,1,1,0,0,0,0,1.41L38.56,44A1,1,0,0,0,40,44a1,1,0,0,0,0-1.41Z"/>
                <path class="cls-2"
                      d="M38.56,24l-1.23,1.24a1,1,0,0,0,0,1.41,1,1,0,0,0,1.41,0L40,25.44A1,1,0,0,0,38.56,24Z"/>
                <path class="cls-2"
                      d="M49.77,19.52a1,1,0,0,0,1.07-.22l.31-.32a4,4,0,1,0-5.65-5.65l-.32.31A1,1,0,0,0,45,14.71l-1.75,1.75a21.94,21.94,0,0,0-9.82-4.18v-2h.92a2,2,0,0,0,2-2V6a2,2,0,0,0-2-2H25.67a2,2,0,0,0-2,2v2.4a2,2,0,0,0,2,2h.92v2A22,22,0,1,0,48,21.34Zm0-4.78a2,2,0,0,1,.34,2.38L47.36,14.4A2,2,0,0,1,49.74,14.74Zm-3.43,1.45,2,2-1.58,1.58a19.37,19.37,0,0,0-2-2ZM25.71,8.36l0-2.36h8.6l0,2.32Zm5.68,2v1.74c-.46,0-.93-.05-1.4-.05s-.93,0-1.4.05V10.32ZM30,54A20,20,0,1,1,50,34,20,20,0,0,1,30,54Z"/>
                <path class="cls-2"
                      d="M30,16.21A17.8,17.8,0,1,0,47.79,34,17.82,17.82,0,0,0,30,16.21ZM30,49.8A15.8,15.8,0,1,1,45.79,34,15.8,15.8,0,0,1,30,49.8Z"/>
                <path class="cls-2"
                      d="M35.31,34a5.3,5.3,0,0,0-5.14-5.3L23,23.25A2.68,2.68,0,0,0,19.25,27l5.44,7.17A5.31,5.31,0,0,0,35.31,34Zm-14.46-8.2a.67.67,0,0,1,.07-.88.66.66,0,0,1,.86-.07l5.83,4.42a5.34,5.34,0,0,0-2.35,2.35ZM26.67,34A3.32,3.32,0,1,1,30,37.33,3.32,3.32,0,0,1,26.67,34Z"/>
                <path class="cls-2" d="M40.36,34a1,1,0,0,0,1,1h1.75a1,1,0,0,0,0-2H41.36A1,1,0,0,0,40.36,34Z"/>
            </g>
        </g>
    </g>
</svg>