<svg xmlns="http://www.w3.org/2000/svg" viewBox="0 0 60 60">
    <defs>
        <style>.cls-1{fill:none;}.cls-2{fill:#3d3d63;}</style>
    </defs>
    <title>Store</title>
    <g id="图层_2" data-name="图层 2">
        <g id="Icons">
            <g id="Store">
                <rect class="cls-1" width="60" height="60"/>
                <path class="cls-2"
                      d="M29.7,45.18V38.51a1,1,0,0,0-1-1H16.42a1,1,0,0,0-1,1v6.67a1,1,0,0,0-.81,1,1,1,0,0,0,1,1H29.52a1,1,0,0,0,1-1A1,1,0,0,0,29.7,45.18Zm-8.14,0H17.42V39.51h4.14Zm6.14,0H23.56V39.51H27.7Z"/>
                <path class="cls-2" d="M38.52,46.14a1.23,1.23,0,1,0-1.23-1.23A1.23,1.23,0,0,0,38.52,46.14Z"/>
                <path class="cls-2"
                      d="M54,51.7H51.22V35.06A4.77,4.77,0,0,0,54,30.72a1.09,1.09,0,0,0,0-.26l-3.28-11.9a1,1,0,0,0-1-.73H41.59V15.08h2.35a1,1,0,0,0,1-1V7.3a1,1,0,0,0-1-1H16.06a1,1,0,0,0-1,1v6.78a1,1,0,0,0,1,1h2.35v2.75H10.32a1,1,0,0,0-1,.73L6.08,30.28a1.09,1.09,0,0,0,0,.26,5.1,5.1,0,0,0,1.57,3.67A4.63,4.63,0,0,0,8.78,35V51.7H6a1,1,0,0,0,0,2H54a1,1,0,0,0,0-2ZM38.07,17.63V15.28h1.52v2.35Zm-21-9.33H42.94v4.78H17.06Zm4.87,7v2.35H20.41V15.28Zm2-.2H36.07v2.75H23.93ZM42.58,51.7H36.1V39.51h6.48Zm6.64,0H44.58V38.51a1,1,0,0,0-1-1H35.1a1,1,0,0,0-1,1V51.7H10.78V35.53l.28,0a4.75,4.75,0,0,0,3.21-1.41,3.8,3.8,0,0,0,.42-.48,4.83,4.83,0,0,0,3.83,1.89,4.74,4.74,0,0,0,3.41-1.41,6.14,6.14,0,0,0,.42-.47,4.83,4.83,0,0,0,3.82,1.88,4.75,4.75,0,0,0,3.41-1.41,4.81,4.81,0,0,0,.42-.48,4.83,4.83,0,0,0,3.83,1.89,4.75,4.75,0,0,0,3.4-1.41,4.81,4.81,0,0,0,.42-.48,4.83,4.83,0,0,0,3.83,1.89,4.75,4.75,0,0,0,3.41-1.41,6.14,6.14,0,0,0,.42-.47,4.81,4.81,0,0,0,3.82,1.88h.09Zm-.09-18.15a2.83,2.83,0,0,1-2.82-2.83,1,1,0,0,0-2,0,2.82,2.82,0,0,1-.84,2,2.76,2.76,0,0,1-2,.82,2.83,2.83,0,0,1-2.83-2.83,1,1,0,0,0-2,0,2.83,2.83,0,0,1-2.82,2.83A2.83,2.83,0,0,1,31,30.72a1,1,0,0,0-2,0,2.83,2.83,0,1,1-5.65,0,1,1,0,0,0-2,0,2.83,2.83,0,1,1-5.66,0,1,1,0,0,0-2,0A2.82,2.82,0,0,1,11,33.55a2.76,2.76,0,0,1-2-.78,3.08,3.08,0,0,1-.95-2.1l3-10.84h4.6l-1.19,6.49a1,1,0,0,0,.8,1.16l.18,0a1,1,0,0,0,1-.82l1.26-6.85h4.64l-.61,6.57a1,1,0,0,0,.91,1.09h.09a1,1,0,0,0,1-.91l.62-6.76H29V26.5a1,1,0,0,0,2,0V19.83h4.64l.62,6.76a1,1,0,0,0,1,.91h.09a1,1,0,0,0,.91-1.09l-.61-6.57h4.64l1.26,6.85a1,1,0,0,0,1,.82l.18,0a1,1,0,0,0,.8-1.16l-1.19-6.49h4.6l3,11a2.81,2.81,0,0,1-.83,1.88A2.76,2.76,0,0,1,49.13,33.55Z"/>
            </g>
        </g>
    </g>
</svg>