<svg xmlns="http://www.w3.org/2000/svg" viewBox="0 0 60 60">
    <defs>
        <style>.cls-1{fill:none;}.cls-2{fill:#3d3d63;}</style>
    </defs>
    <title>Terminal</title>
    <g id="图层_2" data-name="图层 2">
        <g id="Icons">
            <g id="Terminal">
                <rect class="cls-1" width="60" height="60"/>
                <path class="cls-2"
                      d="M53.33,30.44H53V14.93a3,3,0,0,0-3-3H8.67a3,3,0,0,0-3,3V40.26A2.33,2.33,0,0,0,8,42.6H21.61l-1,3.7H19.33a4.32,4.32,0,0,0-4.2,3.33H12.67a1,1,0,0,0,0,2H40.35a2.33,2.33,0,0,0,2.32,2.15H53.33a2.34,2.34,0,0,0,2.34-2.34V32.78A2.34,2.34,0,0,0,53.33,30.44ZM21,13.93H50a1,1,0,0,1,1,1V30.44H42.67a2.34,2.34,0,0,0-2.34,2.34v3.15H21ZM40.33,46.42a4.64,4.64,0,0,0-1-.12H38.09l-1-3.7h3.28ZM7.67,14.93a1,1,0,0,1,1-1H19v22H7.67ZM8,40.6a.34.34,0,0,1-.33-.34V37.93H40.33V40.6Zm28,5.7H22.65l1-3.7H35Zm-16.68,2h20a2.26,2.26,0,0,1,1,.23v1.1H17.23A2.33,2.33,0,0,1,19.33,48.3Zm34.34,3.14a.34.34,0,0,1-.34.34H42.67a.34.34,0,0,1-.34-.34V50H53.67Zm0-3.4H42.33V32.78a.34.34,0,0,1,.34-.34H53.33a.34.34,0,0,1,.34.34Z"/>
                <path class="cls-2" d="M50,33.78H46a1,1,0,0,0,0,2h4a1,1,0,0,0,0-2Z"/>
                <path class="cls-2" d="M16.67,17.1H14a1,1,0,0,0,0,2h2.67a1,1,0,0,0,0-2Z"/>
                <circle class="cls-2" cx="10.33" cy="18.1" r="1"/>
                <path class="cls-2" d="M16.67,22.43H14a1,1,0,0,0,0,2h2.67a1,1,0,0,0,0-2Z"/>
                <path class="cls-2" d="M16.67,25.76H14a1,1,0,0,0,0,2h2.67a1,1,0,0,0,0-2Z"/>
                <circle class="cls-2" cx="10.33" cy="23.43" r="1"/>
                <path class="cls-2"
                      d="M44.17,25.1a4.34,4.34,0,1,0-4.34-4.34A4.34,4.34,0,0,0,44.17,25.1Zm0-6.67a2.34,2.34,0,1,1-2.34,2.33A2.34,2.34,0,0,1,44.17,18.43Z"/>
                <path class="cls-2" d="M24.83,22.5h6a1,1,0,0,0,0-2h-6a1,1,0,0,0,0,2Z"/>
                <path class="cls-2" d="M33.72,23.83H24.83a1,1,0,0,0,0,2h8.89a1,1,0,0,0,0-2Z"/>
                <path class="cls-2" d="M36.72,17.1H24.83a1,1,0,0,0,0,2H36.72a1,1,0,0,0,0-2Z"/>
                <path class="cls-2" d="M30.33,31.76h-5.5a1,1,0,0,0,0,2h5.5a1,1,0,1,0,0-2Z"/>
                <path class="cls-2" d="M24.83,30.43h2.34a1,1,0,0,0,0-2H24.83a1,1,0,0,0,0,2Z"/>
            </g>
        </g>
    </g>
</svg>