<svg xmlns="http://www.w3.org/2000/svg" viewBox="0 0 60 60">
    <defs>
        <style>.cls-1{fill:none;}.cls-2{fill:#3d3d63;}</style>
    </defs>
    <title>Time</title>
    <g id="图层_2" data-name="图层 2">
        <g id="Icons">
            <g id="Time">
                <rect class="cls-1" width="60" height="60"/>
                <path class="cls-2"
                      d="M35.33,51.69A22.33,22.33,0,1,1,30,7.67a22.44,22.44,0,0,1,22.08,19,1,1,0,0,0,1.14.84,1,1,0,0,0,.84-1.14A24.33,24.33,0,1,0,30,54.33a24.62,24.62,0,0,0,5.81-.69,1,1,0,0,0,.73-1.21A1,1,0,0,0,35.33,51.69Z"/>
                <path class="cls-2" d="M31.84,42.91a1,1,0,1,0,0-2H28.16a1,1,0,1,0,0,2Z"/>
                <path class="cls-2"
                      d="M35.39,47.86a18.6,18.6,0,0,1-4.39.75V47.19a1,1,0,0,0-2,0V48.6a18.52,18.52,0,0,1-7.44-2l.71-1.22a1,1,0,1,0-1.73-1l-.71,1.22a18.8,18.8,0,0,1-5.44-5.44l1.22-.71a1,1,0,1,0-1-1.73l-1.22.71a18.52,18.52,0,0,1-2-7.44h1.41a1,1,0,1,0,0-2H11.4a18.52,18.52,0,0,1,2-7.44l1.22.71a1,1,0,1,0,1-1.73l-1.22-.71a18.8,18.8,0,0,1,5.44-5.44l.71,1.22a1,1,0,1,0,1.73-1l-.71-1.22a18.52,18.52,0,0,1,7.44-2v1.41a1,1,0,1,0,2,0V11.4a18.45,18.45,0,0,1,7.44,2l-.71,1.22a1,1,0,1,0,1.73,1l.71-1.22a18.71,18.71,0,0,1,5.45,5.44l-1.23.71a1,1,0,1,0,1,1.73l1.23-.71a18.33,18.33,0,0,1,1.7,4.93,1,1,0,1,0,2-.37A20.64,20.64,0,1,0,36,49.77a1,1,0,0,0,.67-1.24A1,1,0,0,0,35.39,47.86Z"/>
                <path class="cls-2" d="M30,28.77A1.23,1.23,0,1,0,31.23,30,1.23,1.23,0,0,0,30,28.77Z"/>
                <path class="cls-2"
                      d="M33.15,33.46A4.69,4.69,0,0,0,34.7,30a4.36,4.36,0,0,0-.07-.62l6.45-6.44a2.84,2.84,0,1,0-4-4l-6.44,6.45A4.36,4.36,0,0,0,30,25.3a4.43,4.43,0,0,0-1.26.2l-5.37-4.05A2.84,2.84,0,1,0,20,26l5.36,4A4.7,4.7,0,0,0,30,34.7a4.46,4.46,0,0,0,1.42-.25l4.59,8a1,1,0,0,0,1.73-1Zm5.32-13.12a.84.84,0,0,1,1.19,1.19l-5.8,5.8a4.81,4.81,0,0,0-1.19-1.19ZM25.82,27.9l-4.66-3.51a.84.84,0,1,1,1-1.34l4.66,3.51A4.92,4.92,0,0,0,25.82,27.9ZM30,32.7A2.7,2.7,0,1,1,32.7,30,2.7,2.7,0,0,1,30,32.7Z"/>
                <path class="cls-2"
                      d="M52.3,37.87v-1.8h0a2,2,0,0,0,2-2V31.74a1,1,0,0,0-1-1H39.94a1,1,0,0,0-1,1v2.33a2,2,0,0,0,2,2h0v1.8a5.66,5.66,0,0,0,2.46,4.66A5.69,5.69,0,0,0,41,47.2V49h0a2,2,0,0,0-2,2v2.33a1,1,0,0,0,1,1H53.33a1,1,0,0,0,1-1V51a2,2,0,0,0-2-2h0V47.2a5.69,5.69,0,0,0-2.45-4.67A5.65,5.65,0,0,0,52.3,37.87Zm-11.36-3.8V32.74H52.33v1.33ZM52.33,51v1.33H40.94V51Zm-2-3.8V49H43V47.2a3.67,3.67,0,1,1,7.33,0Zm0-9.33a3.67,3.67,0,0,1-7.33,0v-1.8H50.3Z"/>
            </g>
        </g>
    </g>
</svg>