<svg xmlns="http://www.w3.org/2000/svg" viewBox="0 0 60 60">
    <defs>
        <style>.cls-1{fill:none;}.cls-2{fill:#3d3d63;}</style>
    </defs>
    <title>To-do</title>
    <g id="图层_2" data-name="图层 2">
        <g id="Icons">
            <g id="To-do">
                <rect class="cls-1" width="60" height="60"/>
                <path class="cls-2"
                      d="M53.67,14.67a4.35,4.35,0,0,0-4.34-4.34H46.11V10a1,1,0,0,0-2,0v.33H38.56V10a1,1,0,0,0-2,0v.33H31V10a1,1,0,0,0-2,0v.33H23.44V10a1,1,0,1,0-2,0v.33H15.89V10a1,1,0,0,0-2,0v.33H10.67a4.35,4.35,0,0,0-4.34,4.34v4.46s0,.07,0,.1,0,.07,0,.1V48.67A2.34,2.34,0,0,0,8.67,51H51.33a2.34,2.34,0,0,0,2.34-2.33V19.33s0-.06,0-.1,0-.06,0-.1Zm-8.34,21a3,3,0,0,0-3,3V45A2.33,2.33,0,0,1,42,45H9.33a1,1,0,0,1-1-1V20.33H51.67v15a2.58,2.58,0,0,1,0,.38Zm4.92,2-5.92,5.92V38.67a1,1,0,0,1,1-1ZM10.67,12.33h3.22v.34a1,1,0,1,0,2,0v-.34h5.55v.34a1,1,0,0,0,2,0v-.34H29v.34a1,1,0,1,0,2,0v-.34h5.56v.34a1,1,0,1,0,2,0v-.34h5.55v.34a1,1,0,1,0,2,0v-.34h3.22a2.34,2.34,0,0,1,2.34,2.34v3.66H8.33V14.67A2.34,2.34,0,0,1,10.67,12.33ZM51.33,49H8.67a.34.34,0,0,1-.34-.33V46.82a3.05,3.05,0,0,0,1,.18H42A4.31,4.31,0,0,0,45,45.73l6.65-6.65v9.59A.34.34,0,0,1,51.33,49Z"/>
                <circle class="cls-2" cx="12" cy="15.6" r="1"/>
                <circle class="cls-2" cx="48" cy="15.6" r="1"/>
                <path class="cls-2"
                      d="M18.67,24H13.33a1,1,0,0,0-1,1v5.33a1,1,0,0,0,1,1h5.34a1,1,0,0,0,1-1V25A1,1,0,0,0,18.67,24Zm-1,5.33H14.33V26h3.34Z"/>
                <path class="cls-2"
                      d="M18.67,34H13.33a1,1,0,0,0-1,1v5.33a1,1,0,0,0,1,1h5.34a1,1,0,0,0,1-1V35A1,1,0,0,0,18.67,34Zm-1,5.33H14.33V36h3.34Z"/>
                <path class="cls-2" d="M22.56,26.67h3.66a1,1,0,0,0,0-2H22.56a1,1,0,0,0,0,2Z"/>
                <path class="cls-2" d="M32.22,28.67H22.56a1,1,0,0,0,0,2h9.66a1,1,0,0,0,0-2Z"/>
                <path class="cls-2" d="M22.56,36.67h3.66a1,1,0,0,0,0-2H22.56a1,1,0,0,0,0,2Z"/>
                <path class="cls-2" d="M32.22,38.67H22.56a1,1,0,0,0,0,2h9.66a1,1,0,0,0,0-2Z"/>
            </g>
        </g>
    </g>
</svg>