<svg xmlns="http://www.w3.org/2000/svg" viewBox="0 0 60 60">
    <defs>
        <style>.cls-1{fill:none;}.cls-2{fill:#3d3d63;}</style>
    </defs>
    <title>Transport</title>
    <g id="图层_2" data-name="图层 2">
        <g id="Icons">
            <g id="Transport">
                <rect class="cls-1" width="60" height="60"/>
                <path class="cls-2" d="M23.11,41.85h-9a1,1,0,1,0,0,2h9a1,1,0,1,0,0-2Z"/>
                <path class="cls-2" d="M14.08,40.11H19.2a1,1,0,1,0,0-2H14.08a1,1,0,1,0,0,2Z"/>
                <path class="cls-2"
                      d="M54.85,33.49a1,1,0,0,0-1.05-.13l-4.36,2V29.63a3.06,3.06,0,0,0-2.4-3l.61-6.94a1,1,0,0,0-.23-.73,1,1,0,0,0-.68-.35l-2-.18-.38-7.22a1,1,0,0,0-1.05-.94L9,12.09a1,1,0,0,0-1,1.05l.28,5.26a1,1,0,0,0,1.05.94,1,1,0,0,0,.95-1.05L10.06,14l32.38-1.7.31,6L12.46,15.63a1,1,0,0,0-1.09.91L11,20.42H10.5a3.06,3.06,0,0,0-3.06,3V46.31a3.06,3.06,0,0,0,3.06,3.06H41.05v2a1,1,0,0,0,1,1,1,1,0,0,0,.56-.17l4.63-3.08,3.34,1.23a1,1,0,0,0,.83-.06,1,1,0,0,0,.49-.66l3.3-15.16A1,1,0,0,0,54.85,33.49ZM41.81,45l-4.75-1.75,12.33-5.67ZM13.28,17.71l32.29,2.82-.53,6H42.86l.29-3.35a1,1,0,0,0-.91-1.08l-9.54-.84a1,1,0,0,0-1.09.91l-.27,3.07-4.72-3.76a5.1,5.1,0,0,0-3.18-1.11H13Zm27.57,8.87h-6.8a3.1,3.1,0,0,1-.8-.12l.27-3.07,7.55.66ZM10.5,47.37a1.07,1.07,0,0,1-1.06-1.06V23.47a1.06,1.06,0,0,1,1.06-1H23.44a3.14,3.14,0,0,1,1.93.67l5.5,4.38a5.16,5.16,0,0,0,3.18,1.11H46.39a1,1,0,0,1,1,1.05v6.66L34,42.46a1,1,0,0,0-.59.95,1,1,0,0,0,.66.89l6.95,2.56v.51Zm32.55,2.15V47.6l1.86.68Zm7.14-1.43-6.3-2.32,8.65-8.45Z"/>
            </g>
        </g>
    </g>
</svg>