<svg xmlns="http://www.w3.org/2000/svg" viewBox="0 0 60 60">
    <defs>
        <style>.cls-1{fill:none;}.cls-2{fill:#3d3d63;}</style>
    </defs>
    <title>Upvote</title>
    <g id="图层_2" data-name="图层 2">
        <g id="Icons">
            <g id="Upvote">
                <rect class="cls-1" width="60" height="60"/>
                <path class="cls-2"
                      d="M52.15,16.58l-3.26-1.1L48,12.18a1.75,1.75,0,0,0-3.09-.56l-2,2.76-3.43-.13A1.75,1.75,0,0,0,37.89,17l2,2.81L38.7,23.05a1.73,1.73,0,0,0,.38,1.8,1.71,1.71,0,0,0,1.79.46l3.28-1,2.71,2.11a1.76,1.76,0,0,0,.76.35,1.66,1.66,0,0,0,1.07-.15,1.7,1.7,0,0,0,1-1.55l0-3.44,2.85-1.92a1.75,1.75,0,0,0-.42-3.11ZM48.49,20a1.78,1.78,0,0,0-.77,1.43l0,3.07-2.41-1.89a1.72,1.72,0,0,0-.77-.34,1.68,1.68,0,0,0-.83.05l-2.92.91,1.05-2.87a1.79,1.79,0,0,0-.22-1.62l-1.78-2.49,3.06.11a1.73,1.73,0,0,0,1.47-.71l1.83-2.45L47,16.16a1.78,1.78,0,0,0,1.12,1.18l2.9,1Z"/>
                <path class="cls-2"
                      d="M38.38,9.86a1,1,0,0,0,.88.51,1,1,0,0,0,.48-.12,1,1,0,0,0,.39-1.36L39.09,7a1,1,0,0,0-1.75,1Z"/>
                <path class="cls-2" d="M42.5,9h.06a1,1,0,0,0,1-.95l0-1a1,1,0,0,0-2-.1l0,1A1,1,0,0,0,42.5,9Z"/>
                <path class="cls-2"
                      d="M35,11.86l.87.48a1,1,0,0,0,.48.12,1,1,0,0,0,.48-1.87L36,10.11a1,1,0,1,0-1,1.75Z"/>
                <path class="cls-2" d="M15,48.09a1.19,1.19,0,1,0,1.19,1.19A1.19,1.19,0,0,0,15,48.09Z"/>
                <path class="cls-2"
                      d="M47,39.65a3.65,3.65,0,0,0-1.53-3,3.63,3.63,0,0,0-2.78-6H35.56a3.54,3.54,0,0,0-1.71.45A1.88,1.88,0,0,1,33.68,30a17.09,17.09,0,0,0,.25-4.79,6.07,6.07,0,0,0-6.57-5.52,2.1,2.1,0,0,0-1.91,2.28l.06.67a13.33,13.33,0,0,1-1.94,8.15l-4.05,5.3a2.78,2.78,0,0,0-2.61-1.85H13.05A2.79,2.79,0,0,0,10.26,37v.25H7.66a1,1,0,0,0,0,2h2.6v9.62H7.66a1,1,0,1,0,0,2h2.6v.25a2.79,2.79,0,0,0,2.79,2.79h3.86a2.8,2.8,0,0,0,2.65-2,15.45,15.45,0,0,0,7.52,2H41.77a3.65,3.65,0,0,0,3.65-3.65A3.59,3.59,0,0,0,44.63,48,3.66,3.66,0,0,0,46.29,45a3.61,3.61,0,0,0-.86-2.33A3.68,3.68,0,0,0,47,39.65Zm-29.26,5V49h0v2.08a.8.8,0,0,1-.79.79H13.05a.79.79,0,0,1-.79-.79V37a.79.79,0,0,1,.79-.79h3.86a.8.8,0,0,1,.79.79Zm17.86-12h7.09a1.65,1.65,0,0,1,0,3.3H35.56a1.65,1.65,0,0,1,0-3.3ZM33.19,51.9H27.08a13.52,13.52,0,0,1-6.79-1.84,1.19,1.19,0,0,1-.59-1V39.49a1.19,1.19,0,0,1,.35-.85l.09-.1,5.07-6.65a15.33,15.33,0,0,0,2.29-9.46l-.06-.68c0-.05,0-.1.09-.11a4,4,0,0,1,3,.94,4,4,0,0,1,1.44,2.76,15.08,15.08,0,0,1-.22,4.24,3.77,3.77,0,0,0,.68,3A3.51,3.51,0,0,0,32.34,36a3.64,3.64,0,0,0-.45,7.2A3.55,3.55,0,0,0,31.44,45a3.64,3.64,0,0,0,2,3.23,3.68,3.68,0,0,0-.65,2.07A3.54,3.54,0,0,0,33.19,51.9Zm8.58,0H36.42a1.65,1.65,0,0,1,0-3.3h5.35a1.65,1.65,0,0,1,0,3.3Zm.87-5.3H35.09a1.65,1.65,0,0,1,0-3.3h7.55a1.65,1.65,0,0,1,0,3.3Zm.67-5.3H32.63a1.65,1.65,0,0,1,0-3.3H43.31a1.65,1.65,0,1,1,0,3.3Z"/>
            </g>
        </g>
    </g>
</svg>