<svg xmlns="http://www.w3.org/2000/svg" viewBox="0 0 60 60">
    <defs>
        <style>.cls-1{fill:none;}.cls-2{fill:#3d3d63;}</style>
    </defs>
    <title>Wallet</title>
    <g id="图层_2" data-name="图层 2">
        <g id="Icons">
            <g id="Wallet">
                <rect class="cls-1" width="60" height="60"/>
                <path class="cls-2"
                      d="M54.67,29h-1V22a3,3,0,0,0-3-3H48.42l-1.16-4.34a3,3,0,0,0-3.67-2.12l-1.1.3L41,9.71a3,3,0,0,0-4-1.45L13.93,19H12.67a3,3,0,0,0-3,3V33.24a9.66,9.66,0,0,0,4,18.45h37a3,3,0,0,0,3-3v-7h1a1,1,0,0,0,1-1V30A1,1,0,0,0,54.67,29Zm-16.8-19a1,1,0,0,1,1.33.48l1.32,2.84-9.1,2.44a1,1,0,1,0,.52,1.94l12.17-3.26a1,1,0,0,1,1.22.7l1,3.82H18.66ZM6,42a7.67,7.67,0,1,1,7.67,7.66A7.68,7.68,0,0,1,6,42Zm45.67,3H33.44a1,1,0,0,0,0,2H51.67v1.66a1,1,0,0,1-1,1H19.53A9.49,9.49,0,0,0,21.92,47h2.75a1,1,0,0,0,0-2H22.85a9.66,9.66,0,0,0-9.18-12.67,9.36,9.36,0,0,0-2,.21V22a1,1,0,0,1,1-1h38a1,1,0,0,1,1,1v7H41.33a3.66,3.66,0,0,0-3.66,3.66V38a3.66,3.66,0,0,0,3.66,3.66H51.67Zm2-5.34H41.33A1.66,1.66,0,0,1,39.67,38V32.69A1.66,1.66,0,0,1,41.33,31H53.67Z"/>
                <path class="cls-2" d="M42.67,36.36h1.5a1,1,0,0,0,0-2h-1.5a1,1,0,0,0,0,2Z"/>
                <path class="cls-2" d="M29.33,45H28a1,1,0,0,0,0,2h1.33a1,1,0,0,0,0-2Z"/>
                <path class="cls-2"
                      d="M14.21,46.44l.11.31a1,1,0,0,0,.94.66,1,1,0,0,0,.34-.06,1,1,0,0,0,.6-1.28l-.14-.4A2.79,2.79,0,0,0,17,44.6a2.65,2.65,0,0,0,.09-2A2.68,2.68,0,0,0,13.64,41L13,41.2A.67.67,0,0,1,12.55,40l1.26-.46h0a1,1,0,1,0,1.88-.68,2,2,0,0,0-1-1.13,2,2,0,0,0-1.53-.07h0L13,37.3a1,1,0,1,0-1.88.68l.15.41a2.66,2.66,0,0,0,2.42,4.69l.62-.23a.67.67,0,0,1,.86.4.65.65,0,0,1,0,.51.62.62,0,0,1-.37.34l-1.26.46a1,1,0,1,0-1.87.69,2,2,0,0,0,1.87,1.31,2,2,0,0,0,.69-.12Z"/>
            </g>
        </g>
    </g>
</svg>