<svg xmlns="http://www.w3.org/2000/svg" viewBox="0 0 60 60">
    <defs>
        <style>.cls-1{fill:none;}.cls-2{fill:#3d3d63;}</style>
    </defs>
    <title>Website</title>
    <g id="图层_2" data-name="图层 2">
        <g id="Icons">
            <g id="Website">
                <rect class="cls-1" width="60" height="60"/>
                <path class="cls-2"
                      d="M53.33,33.5V15.73a2.41,2.41,0,0,0-2.41-2.41H8.08a2.41,2.41,0,0,0-2.41,2.41V44.57A2.33,2.33,0,0,0,8,46.9H39.92A9.55,9.55,0,1,0,53.33,33.5ZM7.67,15.73a.41.41,0,0,1,.41-.41H50.92a.41.41,0,0,1,.41.41V19.8H7.67ZM8,44.9a.33.33,0,0,1-.33-.33V21.8H51.33V32.29a9.4,9.4,0,0,0-3.89-.84A9.55,9.55,0,0,0,38.71,44.9Zm39.44,3.67A7.56,7.56,0,1,1,55,41,7.57,7.57,0,0,1,47.44,48.57Z"/>
                <path class="cls-2"
                      d="M51.05,40H48.44V37.4a1,1,0,0,0-2,0V40H43.83a1,1,0,0,0,0,2h2.61v2.61a1,1,0,1,0,2,0V42h2.61a1,1,0,0,0,0-2Z"/>
                <path class="cls-2" d="M27.55,29.46h4.93a1,1,0,0,0,0-2H27.55a1,1,0,0,0,0,2Z"/>
                <path class="cls-2" d="M34.24,39.09H14.07a1,1,0,0,0,0,2H34.24a1,1,0,1,0,0-2Z"/>
                <path class="cls-2" d="M27.55,34.57h3.08a1,1,0,1,0,0-2H27.55a1,1,0,0,0,0,2Z"/>
                <circle class="cls-2" cx="19.16" cy="17.56" r="1.17"/>
                <path class="cls-2" d="M10.71,16.39a1.17,1.17,0,1,0,1.16,1.17A1.17,1.17,0,0,0,10.71,16.39Z"/>
                <circle class="cls-2" cx="14.93" cy="17.56" r="1.17"/>
                <path class="cls-2"
                      d="M14.4,29.28a1,1,0,0,0,1-1V28h1.76v6.14h-1a1,1,0,1,0,0,2h4a1,1,0,0,0,0-2h-1V28h1.77v.33a1,1,0,0,0,2,0V27a1,1,0,0,0-1-1H14.4a1,1,0,0,0-1,1v1.33A1,1,0,0,0,14.4,29.28Z"/>
            </g>
        </g>
    </g>
</svg>